<?xml version="1.0" standalone="no"?>
<!DOCTYPE svg PUBLIC "-//W3C//DTD SVG 20010904//EN"
 "http://www.w3.org/TR/2001/REC-SVG-20010904/DTD/svg10.dtd">
<svg version="1.0" xmlns="http://www.w3.org/2000/svg"
 width="200.000000pt" height="200.000000pt" viewBox="0 0 200.000000 200.000000"
 preserveAspectRatio="xMidYMid meet">

<g transform="translate(0.000000,200.000000) scale(0.100000,-0.100000)"
fill="#000000" stroke="none">
<path d="M0 1000 l0 -1000 1000 0 1000 0 0 1000 0 1000 -1000 0 -1000 0 0
-1000z m1192 577 c183 -70 315 -216 363 -402 14 -54 23 -346 10 -334 -2 3 -7
68 -9 145 -8 220 -47 325 -167 445 -114 115 -249 165 -418 156 -224 -11 -410
-147 -489 -356 -23 -58 -26 -85 -30 -228 -2 -90 -8 -163 -13 -163 -15 0 -10
259 6 329 48 200 220 375 421 426 89 22 241 14 326 -18z m-67 -72 c182 -48
325 -207 355 -395 13 -84 13 -270 0 -270 -6 0 -10 47 -10 120 0 142 -11 203
-54 290 -105 217 -389 315 -610 212 -118 -55 -223 -179 -256 -302 -7 -25 -16
-108 -20 -185 l-7 -140 -1 135 c-3 189 21 269 111 382 53 66 184 145 267 161
56 10 170 6 225 -8z m0 -92 c64 -19 146 -74 185 -123 17 -21 42 -65 57 -97 25
-53 28 -71 31 -205 3 -98 1 -148 -6 -148 -7 0 -12 54 -14 148 -3 138 -5 151
-32 210 -37 81 -122 161 -203 193 -77 30 -197 32 -270 5 -114 -42 -209 -147
-238 -261 -9 -36 -15 -104 -15 -177 0 -72 -4 -118 -10 -118 -14 0 -13 190 1
266 43 237 281 379 514 307z m9 -92 c60 -29 117 -85 148 -143 20 -39 23 -58
24 -193 l2 -150 -7 135 c-8 154 -26 208 -89 273 -54 56 -105 79 -188 85 -101
6 -163 -16 -229 -82 -71 -71 -85 -116 -85 -278 0 -86 -4 -128 -11 -128 -8 0
-10 44 -7 143 3 125 6 147 27 187 42 81 115 143 201 171 49 16 162 5 214 -20z
m-44 -82 c56 -25 86 -53 113 -104 18 -33 22 -62 25 -167 3 -89 1 -128 -7 -128
-7 0 -11 39 -11 118 0 106 -3 123 -25 169 -61 122 -218 151 -322 60 -53 -47
-66 -86 -74 -227 l-6 -125 1 140 1 140 32 47 c62 88 177 121 273 77z m-17 -86
c54 -27 67 -65 67 -196 0 -76 -4 -116 -10 -112 -6 4 -10 54 -10 116 0 127 -11
158 -66 184 -46 22 -94 13 -137 -25 l-32 -28 -3 -126 c-2 -69 -8 -126 -13
-126 -15 0 -11 206 5 244 35 84 114 112 199 69z m-535 -411 c38 -3 82 -54 82
-96 0 -75 -33 -106 -116 -109 l-49 -2 -3 94 c-1 52 -1 100 2 106 2 7 17 11 33
10 15 -1 38 -3 51 -3z m480 -85 l3 -86 32 -3 c20 -2 32 -8 32 -18 0 -11 -14
-16 -52 -18 l-53 -3 0 104 c0 57 3 107 7 111 19 18 28 -8 31 -87z m440 52 c3
-33 5 -35 33 -31 46 7 59 -12 59 -84 0 -50 -3 -64 -15 -64 -11 0 -15 12 -15
48 0 55 -10 75 -36 70 -15 -2 -20 -15 -24 -58 -4 -40 -9 -55 -20 -55 -12 0
-16 18 -18 94 -1 52 0 101 3 109 9 25 30 7 33 -29z m-688 -49 c11 -11 20 -29
20 -40 0 -18 -7 -20 -55 -20 -43 0 -53 -3 -49 -14 8 -21 33 -28 56 -15 26 14
52 -6 28 -22 -55 -35 -113 -8 -118 55 -2 25 2 44 14 57 23 25 78 25 104 -1z
m87 -20 c9 -22 19 -40 22 -40 3 0 14 18 23 40 10 24 23 40 33 40 10 0 15 -5
12 -12 -28 -70 -61 -138 -67 -138 -7 0 -70 129 -70 143 0 4 7 7 16 7 9 0 22
-17 31 -40z m357 18 c19 -26 21 -114 4 -124 -6 -4 -14 -2 -16 4 -3 9 -9 9 -24
1 -46 -24 -92 16 -68 61 8 14 21 20 46 20 48 0 40 24 -9 28 -59 5 -47 32 14
32 28 0 42 -6 53 -22z m166 7 c20 -24 -2 -40 -29 -23 -42 26 -81 -31 -45 -66
10 -10 23 -14 33 -10 28 11 46 9 46 -6 0 -23 -48 -35 -83 -21 -53 22 -63 102
-15 130 27 16 79 13 93 -4z"/>
<path d="M490 640 c0 -66 1 -70 23 -70 41 0 67 27 67 70 0 43 -26 70 -67 70
-22 0 -23 -4 -23 -70z"/>
<path d="M695 640 c-4 -6 7 -10 25 -10 18 0 29 4 25 10 -3 6 -15 10 -25 10
-10 0 -22 -4 -25 -10z"/>
<path d="M1147 593 c-16 -15 -6 -34 15 -31 29 4 38 38 10 38 -10 0 -22 -3 -25
-7z"/>
</g>
</svg>
